<svg width="300" height="96" viewBox="0 0 300 96" fill="none" xmlns="http://www.w3.org/2000/svg">
<path d="M30.2701 66.5214C25.962 66.5214 22.2586 65.6874 19.1597 64.0198C16.1505 62.3264 13.6758 60.2046 11.7357 57.6534C11.6274 57.511 11.5988 57.3228 11.6572 57.1531C11.8551 56.5775 12.6976 56.7211 12.6976 57.3305V63.6615C12.6976 64.5502 11.9847 65.2706 11.1053 65.2706H3.00005C1.3432 65.2706 5.2883e-05 63.9133 5.2883e-05 62.239V3.03158C5.2883e-05 1.35728 1.3432 0 3.00005 0H9.6976C11.3545 0 12.6976 1.35728 12.6976 3.03158V27.0634L12.5316 23.7339C12.4926 22.9518 12.7455 22.1754 13.2983 21.6266C15.1067 19.8316 17.4762 18.3463 20.4068 17.1705C23.808 15.7302 27.6626 15.01 31.9707 15.01C36.2032 15.01 40.0578 16.0334 43.5345 18.0802C47.0868 20.0512 49.9211 22.9319 52.0373 26.7223C54.1536 30.5127 55.2117 35.0613 55.2117 40.3677C55.2117 45.7503 54.0402 50.4124 51.6972 54.3543C49.4298 58.2961 46.3688 61.3288 42.5142 63.4512C38.7351 65.498 34.6538 66.5214 30.2701 66.5214ZM27.5492 55.7188C30.2701 55.7188 32.7265 55.0746 34.9183 53.7857C37.1857 52.4212 38.9619 50.5637 40.2467 48.2138C41.6072 45.864 42.2874 43.2105 42.2874 40.254C42.2874 37.3731 41.6072 34.7958 40.2467 32.5216C38.9619 30.2474 37.1857 28.4659 34.9183 27.1771C32.7265 25.8126 30.2701 25.1303 27.5492 25.1303C25.1306 25.1303 22.901 25.5472 20.8603 26.3811C18.8952 27.2151 17.1946 28.39 15.7586 29.9062C14.5103 31.2278 13.5484 32.7728 12.8728 34.5412C12.7516 34.8583 12.6976 35.1968 12.6976 35.5367V45.1454C12.6976 45.52 12.7637 45.8925 12.9084 46.2374C13.6458 47.9944 14.6336 49.5627 15.872 50.9429C17.2324 52.4593 18.8952 53.6339 20.8603 54.468C22.901 55.3021 25.1306 55.7188 27.5492 55.7188ZM83.1543 66.5214C78.6194 66.5214 74.5001 65.5736 70.7968 63.6786C67.1689 61.7836 64.2967 58.9784 62.1806 55.264C60.064 51.4734 59.0062 46.8112 59.0062 41.2774C59.0062 35.8192 60.102 31.157 62.294 27.2908C64.5614 23.3489 67.5091 20.3165 71.1369 18.1939C74.8402 16.0713 78.8462 15.01 83.1543 15.01C87.7645 15.01 91.4677 15.9197 94.2646 17.739C97.1034 19.5376 99.3151 21.6695 100.899 24.1347C100.933 24.1887 100.94 24.2561 100.918 24.3163C100.833 24.5438 100.496 24.4564 100.53 24.2157L101.411 17.9467C101.474 17.5014 101.851 17.1705 102.296 17.1705H110.198C111.854 17.1705 113.198 18.5278 113.198 20.2021V62.239C113.198 63.9133 111.854 65.2706 110.198 65.2706H102.41C101.355 65.2706 100.5 64.4067 100.5 63.341V56.5606C100.5 55.9116 101.384 55.7353 101.628 56.3358C101.702 56.5187 101.682 56.7273 101.567 56.8867C101.23 57.3498 100.686 58.0217 99.9332 58.9027C99.0262 59.888 97.7791 60.9876 96.1919 62.2004C94.6047 63.4131 92.7148 64.4365 90.5234 65.2706C88.4067 66.1047 85.9505 66.5214 83.1543 66.5214ZM86.6688 56.0599C88.9362 56.0599 90.9768 55.6432 92.7908 54.8091C94.6801 53.975 96.2673 52.8004 97.5524 51.284C98.8245 49.8661 99.766 48.1832 100.377 46.2354C100.462 45.9649 100.5 45.6819 100.5 45.3981V35.8236C100.5 35.5192 100.457 35.2156 100.358 34.9279C99.7466 33.1405 98.8114 31.5803 97.5524 30.2474C96.1919 28.7312 94.5288 27.5562 92.564 26.7223C90.6742 25.8884 88.5581 25.4715 86.2153 25.4715C83.6452 25.4715 81.2644 26.1158 79.0729 27.4046C76.8809 28.6933 75.1049 30.4748 73.7445 32.749C72.4594 35.0233 71.8172 37.6386 71.8172 40.5951C71.8172 43.476 72.4974 46.0914 73.8578 48.4413C75.2183 50.7911 77.0322 52.6486 79.2996 54.0131C81.5671 55.3777 84.0232 56.0599 86.6688 56.0599ZM135.643 17.1705C136.135 17.1705 136.545 17.5514 136.586 18.0469L137.486 28.887C137.501 29.0651 137.246 29.1064 137.205 28.9324C137.197 28.9003 137.201 28.8665 137.215 28.8368C138.573 25.9759 140.418 23.5274 142.748 21.4915C145.167 19.3689 147.623 17.777 150.117 16.7156C151.219 16.2134 152.232 15.822 153.157 15.5416C154.795 15.045 156.175 16.4517 156.098 18.1778L155.813 24.6012C155.736 26.3184 154.256 27.5939 152.561 27.7362C150.2 27.9345 148.062 28.6199 146.149 29.7925C143.504 31.3845 141.426 33.5069 139.914 36.1604C138.478 38.8138 137.76 41.6185 137.76 44.575V62.239C137.76 63.9133 136.417 65.2706 134.76 65.2706H128.062C126.406 65.2706 125.062 63.9133 125.062 62.239V20.2021C125.062 18.5278 126.406 17.1705 128.062 17.1705H135.643ZM182.42 66.5214C177.885 66.5214 173.766 65.5736 170.063 63.6786C166.435 61.7836 163.563 58.9784 161.447 55.264C159.33 51.4734 158.272 46.8112 158.272 41.2774C158.272 35.8192 159.368 31.157 161.56 27.2908C163.827 23.3489 166.775 20.3165 170.403 18.1939C174.106 16.0713 178.112 15.01 182.42 15.01C187.03 15.01 190.734 15.9197 193.531 17.739C196.37 19.5376 198.581 21.6695 200.165 24.1347C200.199 24.1887 200.206 24.2561 200.184 24.3163C200.099 24.5438 199.762 24.4564 199.796 24.2157L200.677 17.9466C200.74 17.5014 201.117 17.1705 201.562 17.1705H209.463C211.12 17.1705 212.463 18.5278 212.463 20.2021V62.239C212.463 63.9133 211.12 65.2706 209.463 65.2706H201.675C200.621 65.2706 199.766 64.4067 199.766 63.341V56.5609C199.766 55.9118 200.65 55.7355 200.894 56.336C200.968 56.5188 200.948 56.7272 200.833 56.8866C200.497 57.3496 199.952 58.0216 199.199 58.9027C198.292 59.888 197.045 60.9876 195.458 62.2004C193.871 63.4131 191.981 64.4365 189.789 65.2706C187.673 66.1047 185.216 66.5214 182.42 66.5214ZM185.935 56.0599C188.202 56.0599 190.243 55.6432 192.057 54.8091C193.946 53.975 195.533 52.8004 196.818 51.284C198.09 49.8661 199.032 48.1832 199.643 46.2354C199.728 45.9649 199.766 45.6819 199.766 45.3981V35.8236C199.766 35.5192 199.723 35.2156 199.624 34.9279C199.013 33.1405 198.077 31.5803 196.818 30.2474C195.458 28.7312 193.795 27.5562 191.83 26.7223C189.941 25.8884 187.824 25.4715 185.481 25.4715C182.912 25.4715 180.531 26.1158 178.339 27.4046C176.147 28.6933 174.371 30.4748 173.01 32.749C171.725 35.0233 171.083 37.6386 171.083 40.5951C171.083 43.476 171.763 46.0914 173.124 48.4413C174.484 50.7911 176.298 52.6486 178.566 54.0131C180.833 55.3777 183.289 56.0599 185.935 56.0599ZM253.465 66.5214C250.139 66.5214 246.927 65.8011 243.828 64.3609C240.778 62.9431 238.313 61.0106 236.434 58.564C236.377 58.4903 236.355 58.3956 236.371 58.3036C236.442 57.9028 237.026 57.9549 237.026 58.362V78.7135C237.026 79.8891 236.083 80.8421 234.919 80.8421H227.328C225.671 80.8421 224.328 79.4848 224.328 77.8105V19.2924C224.328 17.6181 225.671 16.2608 227.328 16.2608H234.561C235.001 16.2608 235.375 16.5848 235.442 17.0238L236.509 24.0194C236.563 24.3745 236.06 24.4982 235.947 24.1576C235.913 24.0562 235.937 23.9442 236.009 23.8659C238.329 21.3458 241.125 19.2655 244.395 17.6253C247.796 15.8817 251.613 15.01 255.845 15.01C260.38 15.01 264.424 16.0713 267.976 18.1939C271.529 20.3165 274.325 23.3489 276.366 27.2908C278.482 31.157 279.54 35.7436 279.54 41.05C279.54 46.3564 278.406 50.9048 276.139 54.6954C273.871 58.486 270.773 61.4044 266.842 63.4512C262.912 65.498 258.453 66.5214 253.465 66.5214ZM250.97 56.4011C253.767 56.4011 256.337 55.7569 258.68 54.468C261.098 53.1791 263.026 51.3978 264.462 49.1235C265.898 46.7737 266.616 44.1583 266.616 41.2774C266.616 38.2453 265.935 35.5918 264.575 33.3176C263.29 30.9676 261.514 29.1482 259.247 27.8594C257.055 26.4949 254.598 25.8126 251.877 25.8126C249.383 25.8126 247.154 26.2295 245.189 27.0634C243.224 27.8973 241.561 29.1102 240.2 30.7022C238.947 32.0991 237.95 33.7534 237.21 35.6649C237.084 35.9909 237.026 36.3394 237.026 36.6895V45.4362C237.026 45.6949 237.057 45.953 237.128 46.2016C237.668 48.096 238.541 49.7902 239.747 51.284C241.032 52.876 242.657 54.1268 244.622 55.0365C246.587 55.9462 248.703 56.4011 250.97 56.4011ZM287.302 20.2021C287.302 18.5278 288.646 17.1705 290.302 17.1705H297C298.657 17.1705 300 18.5278 300 20.2021V62.239C300 63.9133 298.657 65.2706 297 65.2706H290.302C288.646 65.2706 287.302 63.9133 287.302 62.239V20.2021Z" fill="#FF4F00"/>
<path d="M107.096 86.4514C43.252 86.4514 1.00646 79.9386 0.00891699 80.9485C-0.988628 81.9583 81.9606 96 123.001 96C164.041 96 205.765 94.5555 210.482 90.5079C215.2 86.4602 213.698 80.8738 202.502 80.8738C191.305 80.8738 170.94 86.4514 107.096 86.4514Z" fill="#FF4F00"/>
</svg>
